<?xml version="1.0" encoding="UTF-8" standalone="no"?>
<!DOCTYPE svg PUBLIC "-//W3C//DTD SVG 1.1//EN"
 "http://www.w3.org/Graphics/SVG/1.1/DTD/svg11.dtd">
<!-- Generated by graphviz version 10.0.1 (20240210.2158)
 -->
<!-- Title: DFA Pages: 1 -->
<svg width="171pt" height="52pt"
 viewBox="0.00 0.00 171.35 52.00" xmlns="http://www.w3.org/2000/svg" xmlns:xlink="http://www.w3.org/1999/xlink">
<g id="graph0" class="graph" transform="scale(1 1) rotate(0) translate(4 48)">
<title>DFA</title>
<polygon fill="white" stroke="none" points="-4,4 -4,-48 167.35,-48 167.35,4 -4,4"/>
<!-- 1 -->
<g id="node1" class="node">
<title>1</title>
<ellipse fill="none" stroke="black" cx="62.6" cy="-22" rx="18" ry="18"/>
<ellipse fill="none" stroke="black" cx="62.6" cy="-22" rx="22" ry="22"/>
<text text-anchor="middle" x="62.6" y="-16.95" font-family="Times,serif" font-size="14.00">1</text>
</g>
<!-- 2 -->
<g id="node2" class="node">
<title>2</title>
<ellipse fill="none" stroke="black" cx="145.35" cy="-22" rx="18" ry="18"/>
<text text-anchor="middle" x="145.35" y="-16.95" font-family="Times,serif" font-size="14.00">2</text>
</g>
<!-- 1&#45;&gt;2 -->
<g id="edge1" class="edge">
<title>1&#45;&gt;2</title>
<path fill="none" stroke="black" d="M84.82,-22C94.29,-22 105.59,-22 115.79,-22"/>
<polygon fill="black" stroke="black" points="115.57,-25.5 125.57,-22 115.57,-18.5 115.57,-25.5"/>
<text text-anchor="middle" x="105.98" y="-25.2" font-family="Times,serif" font-size="14.00">a</text>
</g>
<!-- 2&#45;&gt;1 -->
<g id="edge2" class="edge">
<title>2&#45;&gt;1</title>
<path fill="none" stroke="black" d="M130.48,-11.58C124.34,-7.6 116.83,-3.53 109.35,-1.5 102.89,0.25 96.19,-0.9 89.97,-3.36"/>
<polygon fill="black" stroke="black" points="88.7,-0.08 81.43,-7.78 91.92,-6.29 88.7,-0.08"/>
<text text-anchor="middle" x="105.98" y="-5.2" font-family="Times,serif" font-size="14.00">0</text>
</g>
<!-- _start -->
<g id="node3" class="node">
<title>_start</title>
<ellipse fill="black" stroke="black" cx="1.8" cy="-22" rx="1.8" ry="1.8"/>
</g>
<!-- _start&#45;&gt;1 -->
<g id="edge3" class="edge">
<title>_start&#45;&gt;1</title>
<path fill="none" stroke="black" d="M3.82,-22C7.09,-22 17.76,-22 29.06,-22"/>
<polygon fill="black" stroke="black" points="28.8,-25.5 38.8,-22 28.8,-18.5 28.8,-25.5"/>
</g>
</g>
</svg>
