<?xml version="1.0" encoding="UTF-8" standalone="no"?>
<!DOCTYPE svg PUBLIC "-//W3C//DTD SVG 1.1//EN"
 "http://www.w3.org/Graphics/SVG/1.1/DTD/svg11.dtd">
<!-- Generated by graphviz version 10.0.1 (20240210.2158)
 -->
<!-- Title: DFA Pages: 1 -->
<svg width="171pt" height="87pt"
 viewBox="0.00 0.00 171.35 86.50" xmlns="http://www.w3.org/2000/svg" xmlns:xlink="http://www.w3.org/1999/xlink">
<g id="graph0" class="graph" transform="scale(1 1) rotate(0) translate(4 82.5)">
<title>DFA</title>
<polygon fill="white" stroke="none" points="-4,4 -4,-82.5 167.35,-82.5 167.35,4 -4,4"/>
<!-- 0 -->
<g id="node1" class="node">
<title>0</title>
<ellipse fill="none" stroke="black" cx="58.6" cy="-22" rx="18" ry="18"/>
<text text-anchor="middle" x="58.6" y="-16.95" font-family="Times,serif" font-size="14.00">0</text>
</g>
<!-- 0&#45;&gt;0 -->
<g id="edge1" class="edge">
<title>0&#45;&gt;0</title>
<path fill="none" stroke="black" d="M52.13,-39.04C50.81,-48.86 52.97,-58 58.6,-58 61.86,-58 63.95,-54.94 64.88,-50.47"/>
<polygon fill="black" stroke="black" points="68.38,-50.61 65.04,-40.55 61.38,-50.49 68.38,-50.61"/>
<text text-anchor="middle" x="58.6" y="-61.2" font-family="Times,serif" font-size="14.00">a</text>
</g>
<!-- 1 -->
<g id="node2" class="node">
<title>1</title>
<ellipse fill="none" stroke="black" cx="141.35" cy="-22" rx="18" ry="18"/>
<ellipse fill="none" stroke="black" cx="141.35" cy="-22" rx="22" ry="22"/>
<text text-anchor="middle" x="141.35" y="-16.95" font-family="Times,serif" font-size="14.00">1</text>
</g>
<!-- 0&#45;&gt;1 -->
<g id="edge2" class="edge">
<title>0&#45;&gt;1</title>
<path fill="none" stroke="black" d="M76.72,-22C85.67,-22 96.93,-22 107.48,-22"/>
<polygon fill="black" stroke="black" points="107.42,-25.5 117.42,-22 107.42,-18.5 107.42,-25.5"/>
<text text-anchor="middle" x="97.98" y="-25.2" font-family="Times,serif" font-size="14.00">b</text>
</g>
<!-- 1&#45;&gt;0 -->
<g id="edge3" class="edge">
<title>1&#45;&gt;0</title>
<path fill="none" stroke="black" d="M123.87,-8.47C115.36,-3.1 104.68,1.23 94.6,-1.5 90.75,-2.55 86.88,-4.13 83.2,-5.97"/>
<polygon fill="black" stroke="black" points="81.7,-2.8 74.78,-10.83 85.2,-8.86 81.7,-2.8"/>
<text text-anchor="middle" x="97.98" y="-5.2" font-family="Times,serif" font-size="14.00">a</text>
</g>
<!-- 1&#45;&gt;1 -->
<g id="edge4" class="edge">
<title>1&#45;&gt;1</title>
<path fill="none" stroke="black" d="M133.42,-42.99C132.44,-53.09 135.08,-62 141.35,-62 145.07,-62 147.52,-58.86 148.68,-54.19"/>
<polygon fill="black" stroke="black" points="152.16,-54.68 149.2,-44.5 145.17,-54.3 152.16,-54.68"/>
<text text-anchor="middle" x="141.35" y="-65.2" font-family="Times,serif" font-size="14.00">b</text>
</g>
<!-- _start -->
<g id="node3" class="node">
<title>_start</title>
<ellipse fill="black" stroke="black" cx="1.8" cy="-22" rx="1.8" ry="1.8"/>
</g>
<!-- _start&#45;&gt;0 -->
<g id="edge5" class="edge">
<title>_start&#45;&gt;0</title>
<path fill="none" stroke="black" d="M3.75,-22C6.96,-22 17.8,-22 28.92,-22"/>
<polygon fill="black" stroke="black" points="28.79,-25.5 38.79,-22 28.78,-18.5 28.79,-25.5"/>
</g>
</g>
</svg>
