<?xml version="1.0" encoding="UTF-8" standalone="no"?>
<!DOCTYPE svg PUBLIC "-//W3C//DTD SVG 1.1//EN"
 "http://www.w3.org/Graphics/SVG/1.1/DTD/svg11.dtd">
<!-- Generated by graphviz version 10.0.1 (20240210.2158)
 -->
<!-- Title: DFA Pages: 1 -->
<svg width="250pt" height="85pt"
 viewBox="0.00 0.00 250.10 85.00" xmlns="http://www.w3.org/2000/svg" xmlns:xlink="http://www.w3.org/1999/xlink">
<g id="graph0" class="graph" transform="scale(1 1) rotate(0) translate(4 81)">
<title>DFA</title>
<polygon fill="white" stroke="none" points="-4,4 -4,-81 246.1,-81 246.1,4 -4,4"/>
<!-- 1 -->
<g id="node1" class="node">
<title>1</title>
<ellipse fill="none" stroke="black" cx="62.6" cy="-22" rx="18" ry="18"/>
<ellipse fill="none" stroke="black" cx="62.6" cy="-22" rx="22" ry="22"/>
<text text-anchor="middle" x="62.6" y="-16.95" font-family="Times,serif" font-size="14.00">1</text>
</g>
<!-- 3 -->
<g id="node3" class="node">
<title>3</title>
<ellipse fill="none" stroke="black" cx="145.35" cy="-59" rx="18" ry="18"/>
<text text-anchor="middle" x="145.35" y="-53.95" font-family="Times,serif" font-size="14.00">3</text>
</g>
<!-- 1&#45;&gt;3 -->
<g id="edge1" class="edge">
<title>1&#45;&gt;3</title>
<path fill="none" stroke="black" d="M83.15,-30.96C93.69,-35.79 106.84,-41.81 118.24,-47.04"/>
<polygon fill="black" stroke="black" points="116.58,-50.12 127.13,-51.11 119.49,-43.76 116.58,-50.12"/>
<text text-anchor="middle" x="105.98" y="-46.2" font-family="Times,serif" font-size="14.00">b</text>
</g>
<!-- 2 -->
<g id="node2" class="node">
<title>2</title>
<ellipse fill="none" stroke="black" cx="224.1" cy="-22" rx="18" ry="18"/>
<text text-anchor="middle" x="224.1" y="-16.95" font-family="Times,serif" font-size="14.00">2</text>
</g>
<!-- 2&#45;&gt;1 -->
<g id="edge2" class="edge">
<title>2&#45;&gt;1</title>
<path fill="none" stroke="black" d="M205.88,-19.63C193.97,-18.11 177.73,-16.28 163.35,-15.5 147.37,-14.63 143.33,-14.69 127.35,-15.5 117.13,-16.02 106.02,-17.01 95.98,-18.05"/>
<polygon fill="black" stroke="black" points="95.87,-14.55 86.31,-19.13 96.64,-21.5 95.87,-14.55"/>
<text text-anchor="middle" x="145.35" y="-19.2" font-family="Times,serif" font-size="14.00">a</text>
</g>
<!-- 3&#45;&gt;2 -->
<g id="edge3" class="edge">
<title>3&#45;&gt;2</title>
<path fill="none" stroke="black" d="M161.88,-51.51C172.01,-46.63 185.47,-40.14 197.2,-34.49"/>
<polygon fill="black" stroke="black" points="198.48,-37.76 205.96,-30.26 195.44,-31.45 198.48,-37.76"/>
<text text-anchor="middle" x="184.73" y="-45.2" font-family="Times,serif" font-size="14.00">b</text>
</g>
<!-- _start -->
<g id="node4" class="node">
<title>_start</title>
<ellipse fill="black" stroke="black" cx="1.8" cy="-22" rx="1.8" ry="1.8"/>
</g>
<!-- _start&#45;&gt;1 -->
<g id="edge4" class="edge">
<title>_start&#45;&gt;1</title>
<path fill="none" stroke="black" d="M3.82,-22C7.09,-22 17.76,-22 29.06,-22"/>
<polygon fill="black" stroke="black" points="28.8,-25.5 38.8,-22 28.8,-18.5 28.8,-25.5"/>
</g>
</g>
</svg>
