<?xml version="1.0" encoding="UTF-8" standalone="no"?>
<!DOCTYPE svg PUBLIC "-//W3C//DTD SVG 1.1//EN"
 "http://www.w3.org/Graphics/SVG/1.1/DTD/svg11.dtd">
<!-- Generated by graphviz version 10.0.1 (20240210.2158)
 -->
<!-- Title: DFA Pages: 1 -->
<svg width="328pt" height="132pt"
 viewBox="0.00 0.00 328.10 132.00" xmlns="http://www.w3.org/2000/svg" xmlns:xlink="http://www.w3.org/1999/xlink">
<g id="graph0" class="graph" transform="scale(1 1) rotate(0) translate(4 128)">
<title>DFA</title>
<polygon fill="white" stroke="none" points="-4,4 -4,-128 324.1,-128 324.1,4 -4,4"/>
<!-- 1 -->
<g id="node1" class="node">
<title>1</title>
<ellipse fill="none" stroke="black" cx="62.6" cy="-22" rx="18" ry="18"/>
<ellipse fill="none" stroke="black" cx="62.6" cy="-22" rx="22" ry="22"/>
<text text-anchor="middle" x="62.6" y="-16.95" font-family="Times,serif" font-size="14.00">1</text>
</g>
<!-- 5 -->
<g id="node5" class="node">
<title>5</title>
<ellipse fill="none" stroke="black" cx="144.6" cy="-52" rx="18" ry="18"/>
<text text-anchor="middle" x="144.6" y="-46.95" font-family="Times,serif" font-size="14.00">5</text>
</g>
<!-- 1&#45;&gt;5 -->
<g id="edge1" class="edge">
<title>1&#45;&gt;5</title>
<path fill="none" stroke="black" d="M83.79,-29.57C93.75,-33.31 105.91,-37.86 116.65,-41.89"/>
<polygon fill="black" stroke="black" points="115.18,-45.08 125.77,-45.31 117.64,-38.53 115.18,-45.08"/>
<text text-anchor="middle" x="105.6" y="-42.2" font-family="Times,serif" font-size="14.00">c</text>
</g>
<!-- 2 -->
<g id="node2" class="node">
<title>2</title>
<ellipse fill="none" stroke="black" cx="302.1" cy="-52" rx="18" ry="18"/>
<text text-anchor="middle" x="302.1" y="-46.95" font-family="Times,serif" font-size="14.00">2</text>
</g>
<!-- 2&#45;&gt;1 -->
<g id="edge2" class="edge">
<title>2&#45;&gt;1</title>
<path fill="none" stroke="black" d="M285.98,-43.08C274.25,-36.68 257.34,-28.59 241.35,-25 191.57,-13.83 131.96,-15.84 95.97,-18.66"/>
<polygon fill="black" stroke="black" points="95.89,-15.15 86.23,-19.5 96.49,-22.13 95.89,-15.15"/>
<text text-anchor="middle" x="183.98" y="-21.2" font-family="Times,serif" font-size="14.00">d</text>
</g>
<!-- 3 -->
<g id="node3" class="node">
<title>3</title>
<ellipse fill="none" stroke="black" cx="223.35" cy="-106" rx="18" ry="18"/>
<text text-anchor="middle" x="223.35" y="-100.95" font-family="Times,serif" font-size="14.00">3</text>
</g>
<!-- 3&#45;&gt;2 -->
<g id="edge3" class="edge">
<title>3&#45;&gt;2</title>
<path fill="none" stroke="black" d="M238.79,-95.84C249.72,-88.15 264.97,-77.42 277.65,-68.5"/>
<polygon fill="black" stroke="black" points="279.33,-71.6 285.49,-62.98 275.3,-65.87 279.33,-71.6"/>
<text text-anchor="middle" x="262.73" y="-83.2" font-family="Times,serif" font-size="14.00">a</text>
</g>
<!-- 4 -->
<g id="node4" class="node">
<title>4</title>
<ellipse fill="none" stroke="black" cx="223.35" cy="-52" rx="18" ry="18"/>
<text text-anchor="middle" x="223.35" y="-46.95" font-family="Times,serif" font-size="14.00">4</text>
</g>
<!-- 4&#45;&gt;2 -->
<g id="edge4" class="edge">
<title>4&#45;&gt;2</title>
<path fill="none" stroke="black" d="M241.77,-52C250.79,-52 262.05,-52 272.33,-52"/>
<polygon fill="black" stroke="black" points="272.24,-55.5 282.24,-52 272.24,-48.5 272.24,-55.5"/>
<text text-anchor="middle" x="262.73" y="-55.2" font-family="Times,serif" font-size="14.00">b</text>
</g>
<!-- 5&#45;&gt;3 -->
<g id="edge6" class="edge">
<title>5&#45;&gt;3</title>
<path fill="none" stroke="black" d="M160.04,-62.16C170.97,-69.85 186.22,-80.58 198.9,-89.5"/>
<polygon fill="black" stroke="black" points="196.55,-92.13 206.74,-95.02 200.58,-86.4 196.55,-92.13"/>
<text text-anchor="middle" x="183.98" y="-83.2" font-family="Times,serif" font-size="14.00">b</text>
</g>
<!-- 5&#45;&gt;4 -->
<g id="edge5" class="edge">
<title>5&#45;&gt;4</title>
<path fill="none" stroke="black" d="M163.02,-52C172.04,-52 183.3,-52 193.58,-52"/>
<polygon fill="black" stroke="black" points="193.49,-55.5 203.49,-52 193.49,-48.5 193.49,-55.5"/>
<text text-anchor="middle" x="183.98" y="-55.2" font-family="Times,serif" font-size="14.00">a</text>
</g>
<!-- _start -->
<g id="node6" class="node">
<title>_start</title>
<ellipse fill="black" stroke="black" cx="1.8" cy="-22" rx="1.8" ry="1.8"/>
</g>
<!-- _start&#45;&gt;1 -->
<g id="edge7" class="edge">
<title>_start&#45;&gt;1</title>
<path fill="none" stroke="black" d="M3.82,-22C7.09,-22 17.76,-22 29.06,-22"/>
<polygon fill="black" stroke="black" points="28.8,-25.5 38.8,-22 28.8,-18.5 28.8,-25.5"/>
</g>
</g>
</svg>
